<svg width="50" height="50" viewBox="0 0 50 50" fill="none" xmlns="http://www.w3.org/2000/svg">
<path d="M25.0022 0C18.2127 0 17.3605 0.0297497 14.694 0.150999C12.0325 0.272997 10.2157 0.694243 8.62625 1.31249C6.98175 1.95098 5.587 2.80522 4.1975 4.19521C2.80675 5.58494 1.9525 6.97968 1.312 8.62341C0.692 10.2134 0.27025 12.0309 0.1505 14.6911C0.0312498 17.3578 0 18.2103 0 25C0 31.7897 0.03 32.6392 0.151 35.3056C0.2735 37.9671 0.69475 39.7838 1.3125 41.3733C1.9515 43.0178 2.80575 44.4126 4.19575 45.802C5.585 47.1928 6.97975 48.049 8.623 48.6875C10.2137 49.3058 12.0307 49.727 14.6917 49.849C17.3585 49.9702 18.21 50 24.9992 50C31.7895 50 32.639 49.9702 35.3055 49.849C37.967 49.727 39.7857 49.3058 41.3765 48.6875C43.0202 48.049 44.413 47.1928 45.802 45.802C47.1927 44.4126 48.0467 43.0178 48.6875 41.3741C49.302 39.7839 49.724 37.9666 49.849 35.3061C49.9687 32.6397 50 31.7897 50 25C50 18.2103 49.9687 17.3583 49.849 14.6916C49.724 12.0301 49.302 10.2136 48.6875 8.62416C48.0467 6.97968 47.1927 5.58494 45.802 4.19521C44.4115 2.80472 43.0207 1.95048 41.375 1.31274C39.7812 0.694243 37.9635 0.272747 35.302 0.150999C32.6352 0.0297497 31.7862 0 24.9945 0H25.0022ZM22.7595 4.5052C23.4252 4.5042 24.168 4.5052 25.0022 4.5052C31.6775 4.5052 32.4685 4.5292 35.1045 4.64895C37.542 4.76045 38.865 5.1677 39.7463 5.50994C40.913 5.96294 41.7448 6.50468 42.6193 7.37993C43.4943 8.25492 44.0357 9.08816 44.49 10.2549C44.8322 11.1349 45.24 12.4579 45.351 14.8954C45.4707 17.5308 45.4967 18.3223 45.4967 24.9942C45.4967 31.6662 45.4707 32.4579 45.351 35.0931C45.2395 37.5306 44.8322 38.8536 44.49 39.7339C44.037 40.9006 43.4943 41.7313 42.6193 42.6058C41.7443 43.4808 40.9135 44.0223 39.7463 44.4756C38.866 44.8193 37.542 45.2255 35.1045 45.337C32.469 45.4568 31.6775 45.4828 25.0022 45.4828C18.3267 45.4828 17.5355 45.4568 14.9002 45.337C12.4627 45.2245 11.1397 44.8173 10.2577 44.4751C9.09125 44.0218 8.25775 43.4803 7.38275 42.6053C6.50775 41.7303 5.96625 40.8991 5.512 39.7318C5.16975 38.8516 4.762 37.5286 4.651 35.0911C4.53125 32.4557 4.50725 31.6642 4.50725 24.988C4.50725 18.3121 4.53125 17.5246 4.651 14.8891C4.7625 12.4516 5.16975 11.1286 5.512 10.2474C5.96525 9.08066 6.50775 8.24742 7.383 7.37243C8.258 6.49744 9.09125 5.95569 10.258 5.5017C11.1392 5.15795 12.4627 4.7517 14.9002 4.6397C17.2065 4.53545 18.1003 4.5042 22.7595 4.49895V4.5052ZM38.3473 8.65616C36.691 8.65616 35.3473 9.99865 35.3473 11.6551C35.3473 13.3114 36.691 14.6551 38.3473 14.6551C40.0035 14.6551 41.3472 13.3114 41.3472 11.6551C41.3472 9.9989 40.0035 8.65616 38.3473 8.65616ZM25.0022 12.1614C17.9123 12.1614 12.1637 17.9098 12.1637 25C12.1637 32.0902 17.9123 37.8359 25.0022 37.8359C32.0925 37.8359 37.839 32.0902 37.839 25C37.839 17.9101 32.0925 12.1614 25.0022 12.1614ZM25.0022 16.6666C29.6045 16.6666 33.3358 20.3973 33.3358 25C33.3358 29.6022 29.6045 33.3334 25.0022 33.3334C20.3997 33.3334 16.669 29.6022 16.669 25C16.669 20.3973 20.3997 16.6666 25.0022 16.6666Z" fill="white"/>
</svg>
